<?xml version="1.0" encoding="UTF-8"?>
<svg xmlns="http://www.w3.org/2000/svg" xmlns:xlink="http://www.w3.org/1999/xlink" width="175px" height="49px" viewBox="0 0 173 49" version="1.1">
<defs>
<clipPath id="clip1">
  <path d="M 0.101562 0.0898438 L 172.691406 0.0898438 L 172.691406 38.046875 L 0.101562 38.046875 Z M 0.101562 0.0898438 "/>
</clipPath>
<clipPath id="clip2">
  <path d="M 24.433594 11.40625 L 148.351562 11.40625 L 148.351562 26.644531 L 24.433594 26.644531 Z M 24.433594 11.40625 "/>
</clipPath>
<clipPath id="clip3">
  <path d="M 52.519531 41.644531 L 120.273438 41.644531 L 120.273438 49 L 52.519531 49 Z M 52.519531 41.644531 "/>
</clipPath>
</defs>
<g id="surface1">
<g clip-path="url(#clip1)" clip-rule="nonzero">
<path style=" stroke:none;fill-rule:nonzero;fill:rgb(0%,50.196078%,100%);fill-opacity:1;" d="M 172.285156 8.160156 C 171.476562 4.210938 169.164062 3.113281 169.164062 3.113281 C 162.0625 -0.953125 153.203125 -0.078125 145.242188 0.507812 C 131.191406 0.53125 117.191406 1.398438 103.171875 1.867188 C 73.742188 1.9375 44.0625 0.765625 14.78125 3.652344 C 12.03125 4.535156 -2.753906 3.824219 0.589844 8.667969 C 1.464844 10.679688 4.664062 12.914062 4.566406 14.765625 C 5.003906 15.089844 5.613281 14.34375 5.871094 14.8125 C 6.78125 16.066406 8.265625 15.476562 9.484375 16.21875 C 7.785156 18.199219 9.003906 19.851562 10.164062 21.582031 C 8.121094 22.03125 5.5 21.816406 4.320312 23.3125 C 4.199219 24.394531 3.542969 24.1875 2.820312 24.140625 C 2.292969 24.109375 1.230469 24.226562 1.410156 24.566406 C 2.019531 25.726562 -0.59375 26.398438 1.042969 27.535156 C -0.0820312 28.769531 1.824219 29.835938 1.5625 31.171875 C 1.53125 31.4375 1.710938 31.667969 1.992188 31.730469 C 3.25 32.070312 1.417969 32.734375 1.613281 33.453125 C 14.511719 38.367188 28.507812 34.96875 41.726562 37.230469 C 45.160156 35.648438 42.578125 37.789062 43.949219 37.457031 C 45.019531 37.070312 45.800781 38.675781 47.007812 37.765625 C 47.195312 37.503906 46.910156 36.890625 47.578125 37.007812 C 47.925781 37.070312 48.234375 37.054688 48.28125 36.691406 C 48.355469 36.144531 47.714844 36.484375 47.542969 36.203125 C 49.386719 34.765625 48.933594 38.183594 50.660156 38.042969 C 50.578125 37.625 50.074219 37.023438 51.105469 37.101562 C 52.128906 36.503906 52.160156 36.003906 53.070312 37.355469 C 53.101562 37.648438 53.265625 37.851562 53.523438 37.996094 C 56.363281 36.527344 59.1875 38.515625 62.164062 37.851562 C 63.992188 37.125 65.742188 38.246094 67.59375 37.972656 C 68.242188 37.75 68.898438 37.355469 69.523438 38.019531 C 77.175781 38.160156 85.332031 37.566406 92.585938 38.042969 C 111.96875 37.15625 132.683594 38.40625 153.121094 37.238281 C 157.941406 36.785156 162.945312 36.144531 167.644531 35.632812 C 167.644531 35.632812 171.449219 34.226562 171.449219 27.90625 C 171.449219 21.589844 172.261719 22.378906 172.382812 17.347656 C 172.503906 12.316406 173.074219 12.109375 172.261719 8.160156 Z M 172.285156 8.160156 "/>
</g>
<g clip-path="url(#clip2)" clip-rule="nonzero">
<path style=" stroke:none;fill-rule:nonzero;fill:rgb(100%,100%,100%);fill-opacity:1;" d="M 31.90625 12.472656 C 31.90625 12.9375 31.75 13.359375 31.429688 13.742188 C 31.113281 14.121094 30.726562 14.460938 30.265625 14.761719 C 29.808594 15.0625 29.328125 15.320312 28.824219 15.542969 C 28.324219 15.761719 27.890625 15.949219 27.527344 16.09375 C 27.527344 16.351562 27.519531 16.613281 27.507812 16.882812 C 27.496094 17.152344 27.476562 17.421875 27.449219 17.691406 C 27.839844 17.496094 28.28125 17.3125 28.773438 17.140625 C 29.261719 16.96875 29.726562 16.882812 30.164062 16.882812 C 30.519531 16.882812 30.808594 16.957031 31.035156 17.105469 C 31.261719 17.253906 31.375 17.507812 31.375 17.875 C 31.375 18.28125 31.230469 18.640625 30.941406 18.960938 C 30.65625 19.277344 30.3125 19.5625 29.90625 19.808594 C 29.503906 20.054688 29.082031 20.261719 28.644531 20.433594 C 28.203125 20.601562 27.832031 20.738281 27.527344 20.835938 C 27.527344 21.238281 27.519531 21.640625 27.507812 22.039062 C 27.496094 22.4375 27.476562 22.832031 27.449219 23.226562 C 27.4375 23.421875 27.417969 23.664062 27.386719 23.960938 C 27.355469 24.253906 27.296875 24.539062 27.203125 24.8125 C 27.113281 25.089844 26.980469 25.328125 26.808594 25.53125 C 26.636719 25.734375 26.417969 25.835938 26.148438 25.835938 C 25.894531 25.835938 25.671875 25.707031 25.492188 25.457031 C 25.304688 25.207031 25.148438 24.886719 25.023438 24.492188 C 24.894531 24.101562 24.789062 23.664062 24.710938 23.179688 C 24.628906 22.695312 24.570312 22.21875 24.527344 21.753906 C 24.484375 21.289062 24.460938 20.863281 24.453125 20.46875 C 24.445312 20.074219 24.441406 19.773438 24.441406 19.566406 C 24.441406 19.410156 24.445312 19.171875 24.453125 18.859375 C 24.460938 18.546875 24.464844 18.203125 24.472656 17.824219 C 24.476562 17.441406 24.488281 17.042969 24.507812 16.625 C 24.527344 16.210938 24.550781 15.816406 24.574219 15.441406 C 24.597656 15.066406 24.628906 14.738281 24.671875 14.449219 C 24.714844 14.160156 24.765625 13.949219 24.828125 13.8125 C 24.964844 13.546875 25.285156 13.28125 25.792969 13.015625 C 26.300781 12.753906 26.863281 12.519531 27.488281 12.316406 C 28.113281 12.117188 28.71875 11.949219 29.3125 11.820312 C 29.90625 11.691406 30.363281 11.628906 30.679688 11.628906 C 30.824219 11.628906 30.96875 11.636719 31.109375 11.652344 C 31.246094 11.671875 31.378906 11.714844 31.503906 11.773438 C 31.625 11.835938 31.722656 11.917969 31.796875 12.03125 C 31.871094 12.140625 31.90625 12.289062 31.90625 12.472656 Z M 38.339844 13.265625 C 38.339844 13.496094 38.289062 13.703125 38.183594 13.890625 C 38.082031 14.074219 37.941406 14.226562 37.773438 14.355469 C 37.601562 14.484375 37.414062 14.59375 37.207031 14.679688 C 36.996094 14.765625 36.792969 14.824219 36.597656 14.859375 C 36.574219 16.246094 36.523438 17.582031 36.441406 18.871094 C 36.363281 20.15625 36.238281 21.484375 36.066406 22.855469 L 36.175781 22.855469 C 36.371094 22.855469 36.566406 22.878906 36.753906 22.921875 C 36.945312 22.964844 37.117188 23.039062 37.269531 23.144531 C 37.421875 23.246094 37.542969 23.378906 37.632812 23.53125 C 37.726562 23.683594 37.773438 23.871094 37.773438 24.089844 C 37.773438 24.371094 37.683594 24.617188 37.503906 24.824219 C 37.328125 25.035156 37.097656 25.210938 36.8125 25.355469 C 36.523438 25.503906 36.203125 25.628906 35.847656 25.726562 C 35.492188 25.824219 35.140625 25.898438 34.785156 25.953125 C 34.429688 26.011719 34.089844 26.050781 33.773438 26.074219 C 33.457031 26.101562 33.203125 26.113281 33.003906 26.113281 C 32.859375 26.113281 32.679688 26.105469 32.464844 26.09375 C 32.25 26.082031 32.050781 26.042969 31.859375 25.980469 C 31.671875 25.921875 31.507812 25.828125 31.375 25.707031 C 31.238281 25.582031 31.171875 25.417969 31.171875 25.210938 C 31.171875 24.953125 31.222656 24.722656 31.328125 24.519531 C 31.433594 24.320312 31.570312 24.140625 31.738281 23.976562 C 31.910156 23.820312 32.105469 23.691406 32.316406 23.59375 C 32.53125 23.496094 32.75 23.421875 32.96875 23.371094 C 33.054688 22.699219 33.132812 22.027344 33.207031 21.359375 C 33.277344 20.691406 33.328125 20.015625 33.351562 19.328125 C 33.378906 18.632812 33.402344 17.941406 33.429688 17.261719 C 33.449219 16.582031 33.472656 15.898438 33.5 15.210938 C 33.414062 15.222656 33.335938 15.230469 33.261719 15.238281 C 33.1875 15.246094 33.121094 15.25 33.058594 15.25 C 32.890625 15.25 32.707031 15.230469 32.511719 15.191406 C 32.3125 15.15625 32.128906 15.09375 31.960938 15 C 31.789062 14.90625 31.644531 14.792969 31.527344 14.660156 C 31.414062 14.527344 31.355469 14.355469 31.355469 14.144531 C 31.355469 13.730469 31.53125 13.386719 31.878906 13.117188 C 32.226562 12.847656 32.640625 12.636719 33.125 12.488281 C 33.605469 12.34375 34.097656 12.242188 34.601562 12.1875 C 35.101562 12.132812 35.503906 12.105469 35.808594 12.105469 C 35.980469 12.105469 36.207031 12.117188 36.488281 12.144531 C 36.769531 12.164062 37.046875 12.21875 37.320312 12.308594 C 37.597656 12.394531 37.835938 12.507812 38.039062 12.65625 C 38.238281 12.804688 38.339844 13.007812 38.339844 13.265625 Z M 46.589844 22.855469 C 46.589844 23.089844 46.527344 23.316406 46.40625 23.539062 C 46.285156 23.746094 45.996094 23.992188 45.542969 24.273438 C 45.089844 24.554688 44.589844 24.824219 44.042969 25.074219 C 43.492188 25.324219 42.960938 25.539062 42.445312 25.71875 C 41.933594 25.894531 41.554688 25.980469 41.308594 25.980469 C 41.140625 25.980469 40.9375 25.941406 40.703125 25.863281 C 40.472656 25.785156 40.238281 25.683594 40.007812 25.558594 C 39.777344 25.4375 39.566406 25.296875 39.375 25.136719 C 39.183594 24.976562 39.046875 24.824219 38.960938 24.679688 C 38.914062 24.59375 38.867188 24.421875 38.824219 24.164062 C 38.78125 23.90625 38.746094 23.605469 38.714844 23.261719 C 38.683594 22.917969 38.65625 22.554688 38.632812 22.167969 C 38.605469 21.78125 38.585938 21.414062 38.570312 21.066406 C 38.550781 20.714844 38.539062 20.40625 38.53125 20.136719 C 38.527344 19.867188 38.523438 19.671875 38.523438 19.546875 C 38.523438 19.097656 38.539062 18.574219 38.570312 17.984375 C 38.597656 17.398438 38.65625 16.808594 38.742188 16.210938 C 38.828125 15.617188 38.957031 15.046875 39.121094 14.503906 C 39.28125 13.957031 39.503906 13.496094 39.789062 13.117188 C 39.875 13.007812 40.046875 12.890625 40.304688 12.769531 C 40.558594 12.644531 40.859375 12.527344 41.207031 12.417969 C 41.554688 12.308594 41.929688 12.203125 42.335938 12.105469 C 42.738281 12.007812 43.128906 11.925781 43.503906 11.855469 C 43.871094 11.789062 44.210938 11.734375 44.519531 11.691406 C 44.824219 11.648438 45.054688 11.628906 45.214844 11.628906 C 45.398438 11.628906 45.570312 11.667969 45.734375 11.746094 C 45.902344 11.824219 46.042969 11.933594 46.160156 12.066406 C 46.277344 12.203125 46.367188 12.355469 46.433594 12.519531 C 46.503906 12.683594 46.535156 12.859375 46.535156 13.042969 C 46.535156 13.199219 46.515625 13.335938 46.472656 13.445312 C 46.425781 13.554688 46.363281 13.679688 46.277344 13.8125 C 46.152344 13.976562 45.898438 14.164062 45.507812 14.382812 C 45.117188 14.605469 44.691406 14.820312 44.234375 15.039062 C 43.777344 15.25 43.335938 15.445312 42.914062 15.617188 C 42.492188 15.789062 42.195312 15.910156 42.023438 15.984375 C 41.976562 16.265625 41.921875 16.550781 41.867188 16.835938 C 41.8125 17.125 41.773438 17.417969 41.75 17.710938 C 42.128906 17.515625 42.558594 17.332031 43.03125 17.160156 C 43.507812 16.988281 43.960938 16.902344 44.386719 16.902344 C 45.257812 16.902344 45.691406 17.332031 45.691406 18.1875 C 45.691406 18.398438 45.652344 18.582031 45.570312 18.742188 C 45.492188 18.898438 45.390625 19.039062 45.257812 19.164062 C 45.132812 19.285156 44.984375 19.394531 44.820312 19.484375 C 44.65625 19.578125 44.492188 19.664062 44.335938 19.75 C 43.941406 19.960938 43.535156 20.140625 43.109375 20.292969 C 42.679688 20.445312 42.25 20.597656 41.824219 20.746094 C 41.796875 20.84375 41.773438 20.949219 41.75 21.066406 C 41.722656 21.183594 41.710938 21.296875 41.710938 21.40625 C 41.710938 21.578125 41.722656 21.75 41.75 21.917969 C 41.773438 22.09375 41.796875 22.265625 41.824219 22.433594 C 41.96875 22.386719 42.203125 22.308594 42.53125 22.199219 C 42.851562 22.085938 43.191406 21.976562 43.546875 21.867188 C 43.898438 21.757812 44.242188 21.660156 44.570312 21.582031 C 44.902344 21.5 45.148438 21.460938 45.308594 21.460938 C 45.492188 21.460938 45.660156 21.5 45.820312 21.582031 C 45.980469 21.660156 46.113281 21.765625 46.222656 21.894531 C 46.335938 22.019531 46.421875 22.171875 46.488281 22.34375 C 46.554688 22.515625 46.589844 22.6875 46.589844 22.855469 Z M 56.160156 23.207031 C 56.160156 23.511719 56.035156 23.800781 55.785156 24.074219 C 55.53125 24.339844 55.210938 24.585938 54.8125 24.804688 C 54.414062 25.027344 53.96875 25.21875 53.480469 25.386719 C 52.992188 25.550781 52.511719 25.691406 52.03125 25.808594 C 51.558594 25.921875 51.109375 26.011719 50.683594 26.074219 C 50.265625 26.136719 49.929688 26.164062 49.6875 26.164062 C 49.453125 26.164062 49.207031 26.144531 48.941406 26.101562 C 48.683594 26.058594 48.464844 25.964844 48.292969 25.820312 C 48.195312 25.742188 48.109375 25.578125 48.039062 25.320312 C 47.964844 25.0625 47.894531 24.757812 47.828125 24.402344 C 47.761719 24.046875 47.699219 23.664062 47.652344 23.25 C 47.601562 22.84375 47.566406 22.441406 47.535156 22.050781 C 47.503906 21.65625 47.476562 21.292969 47.460938 20.964844 C 47.441406 20.632812 47.433594 20.378906 47.433594 20.191406 C 47.433594 19.886719 47.441406 19.515625 47.460938 19.082031 C 47.476562 18.648438 47.503906 18.179688 47.542969 17.683594 C 47.578125 17.1875 47.628906 16.679688 47.6875 16.167969 C 47.75 15.652344 47.820312 15.164062 47.898438 14.707031 C 47.980469 14.246094 48.078125 13.832031 48.191406 13.464844 C 48.308594 13.097656 48.433594 12.808594 48.566406 12.601562 C 48.800781 12.269531 49.09375 12.105469 49.449219 12.105469 C 49.691406 12.105469 49.898438 12.1875 50.074219 12.355469 C 50.242188 12.519531 50.378906 12.734375 50.484375 12.996094 C 50.589844 13.261719 50.667969 13.554688 50.722656 13.878906 C 50.777344 14.203125 50.816406 14.527344 50.84375 14.84375 C 50.867188 15.160156 50.878906 15.457031 50.878906 15.726562 C 50.878906 15.996094 50.878906 16.210938 50.878906 16.371094 C 50.878906 17.328125 50.859375 18.273438 50.816406 19.207031 C 50.769531 20.148438 50.75 21.09375 50.75 22.050781 L 50.75 22.765625 C 51.300781 22.59375 51.898438 22.433594 52.546875 22.28125 C 53.195312 22.128906 53.8125 22.050781 54.398438 22.050781 C 54.605469 22.050781 54.816406 22.0625 55.03125 22.085938 C 55.246094 22.109375 55.433594 22.164062 55.597656 22.242188 C 55.765625 22.324219 55.898438 22.441406 56 22.59375 C 56.105469 22.746094 56.160156 22.949219 56.160156 23.207031 Z M 66.054688 17.472656 C 66.054688 18.550781 65.835938 19.585938 65.398438 20.585938 C 64.957031 21.585938 64.367188 22.472656 63.628906 23.246094 C 62.886719 24.015625 62.027344 24.632812 61.042969 25.09375 C 60.058594 25.550781 59.023438 25.78125 57.933594 25.78125 L 57.902344 25.78125 C 57.679688 25.78125 57.5 25.679688 57.355469 25.476562 C 57.214844 25.277344 57.097656 25.023438 57 24.714844 C 56.902344 24.40625 56.828125 24.0625 56.78125 23.683594 C 56.730469 23.304688 56.695312 22.9375 56.667969 22.574219 C 56.648438 22.210938 56.636719 21.886719 56.636719 21.597656 C 56.636719 21.3125 56.636719 21.09375 56.636719 20.949219 C 56.636719 20.53125 56.640625 20.117188 56.652344 19.707031 C 56.664062 19.292969 56.683594 18.878906 56.707031 18.464844 C 56.707031 18.332031 56.714844 18.132812 56.734375 17.867188 C 56.753906 17.605469 56.777344 17.308594 56.800781 16.976562 C 56.824219 16.644531 56.855469 16.300781 56.890625 15.9375 C 56.929688 15.574219 56.96875 15.238281 57.011719 14.925781 C 57.054688 14.613281 57.097656 14.339844 57.140625 14.101562 C 57.179688 13.863281 57.234375 13.699219 57.292969 13.609375 C 57.453125 13.34375 57.699219 13.105469 58.027344 12.894531 C 58.359375 12.6875 58.714844 12.515625 59.097656 12.378906 C 59.484375 12.246094 59.875 12.144531 60.273438 12.078125 C 60.671875 12.011719 61.015625 11.976562 61.308594 11.976562 C 62.117188 11.976562 62.816406 12.125 63.410156 12.425781 C 64.003906 12.726562 64.496094 13.132812 64.890625 13.640625 C 65.289062 14.148438 65.585938 14.734375 65.773438 15.394531 C 65.960938 16.058594 66.054688 16.75 66.054688 17.472656 Z M 62.976562 18.003906 C 62.976562 17.734375 62.929688 17.460938 62.832031 17.179688 C 62.734375 16.894531 62.597656 16.640625 62.417969 16.40625 C 62.242188 16.175781 62.027344 15.988281 61.777344 15.847656 C 61.527344 15.703125 61.246094 15.632812 60.941406 15.632812 C 60.6875 15.632812 60.425781 15.695312 60.152344 15.816406 C 60.09375 15.855469 60.039062 15.96875 59.988281 16.160156 C 59.941406 16.347656 59.902344 16.578125 59.867188 16.847656 C 59.839844 17.117188 59.8125 17.410156 59.785156 17.730469 C 59.761719 18.046875 59.75 18.351562 59.742188 18.640625 C 59.734375 18.929688 59.730469 19.183594 59.722656 19.402344 C 59.71875 19.621094 59.714844 19.769531 59.714844 19.84375 C 59.714844 19.964844 59.714844 20.144531 59.714844 20.386719 C 59.714844 20.625 59.722656 20.863281 59.742188 21.09375 C 59.761719 21.324219 59.78125 21.527344 59.804688 21.699219 C 59.828125 21.871094 59.871094 21.957031 59.933594 21.957031 C 60.300781 21.957031 60.664062 21.8125 61.023438 21.523438 C 61.386719 21.238281 61.710938 20.886719 62.003906 20.46875 C 62.296875 20.054688 62.53125 19.617188 62.710938 19.164062 C 62.886719 18.710938 62.976562 18.324219 62.976562 18.003906 Z M 74.363281 12.472656 C 74.363281 12.9375 74.203125 13.359375 73.882812 13.742188 C 73.566406 14.121094 73.179688 14.460938 72.722656 14.761719 C 72.261719 15.0625 71.785156 15.320312 71.28125 15.542969 C 70.78125 15.761719 70.347656 15.949219 69.980469 16.09375 C 69.980469 16.351562 69.972656 16.613281 69.960938 16.882812 C 69.949219 17.152344 69.929688 17.421875 69.90625 17.691406 C 70.296875 17.496094 70.738281 17.3125 71.226562 17.140625 C 71.714844 16.96875 72.179688 16.882812 72.621094 16.882812 C 72.976562 16.882812 73.265625 16.957031 73.492188 17.105469 C 73.714844 17.253906 73.828125 17.507812 73.828125 17.875 C 73.828125 18.28125 73.6875 18.640625 73.398438 18.960938 C 73.113281 19.277344 72.765625 19.5625 72.363281 19.808594 C 71.960938 20.054688 71.539062 20.261719 71.097656 20.433594 C 70.660156 20.601562 70.285156 20.738281 69.980469 20.835938 C 69.980469 21.238281 69.972656 21.640625 69.960938 22.039062 C 69.949219 22.4375 69.929688 22.832031 69.90625 23.226562 C 69.894531 23.421875 69.875 23.664062 69.839844 23.960938 C 69.8125 24.253906 69.75 24.539062 69.660156 24.8125 C 69.566406 25.089844 69.4375 25.328125 69.265625 25.53125 C 69.09375 25.734375 68.875 25.835938 68.605469 25.835938 C 68.347656 25.835938 68.128906 25.707031 67.945312 25.457031 C 67.761719 25.207031 67.605469 24.886719 67.480469 24.492188 C 67.347656 24.101562 67.246094 23.664062 67.167969 23.179688 C 67.085938 22.695312 67.027344 22.21875 66.984375 21.753906 C 66.941406 21.289062 66.917969 20.863281 66.910156 20.46875 C 66.902344 20.074219 66.902344 19.773438 66.902344 19.566406 C 66.902344 19.410156 66.902344 19.171875 66.910156 18.859375 C 66.917969 18.546875 66.921875 18.203125 66.925781 17.824219 C 66.933594 17.441406 66.945312 17.042969 66.964844 16.625 C 66.980469 16.210938 67.003906 15.816406 67.027344 15.441406 C 67.054688 15.066406 67.085938 14.738281 67.128906 14.449219 C 67.171875 14.160156 67.222656 13.949219 67.285156 13.8125 C 67.417969 13.546875 67.742188 13.28125 68.25 13.015625 C 68.753906 12.753906 69.320312 12.519531 69.941406 12.316406 C 70.566406 12.117188 71.175781 11.949219 71.765625 11.820312 C 72.359375 11.691406 72.816406 11.628906 73.132812 11.628906 C 73.277344 11.628906 73.421875 11.636719 73.566406 11.652344 C 73.707031 11.671875 73.835938 11.714844 73.960938 11.773438 C 74.078125 11.835938 74.175781 11.917969 74.253906 12.03125 C 74.324219 12.140625 74.363281 12.289062 74.363281 12.472656 Z M 80.796875 13.265625 C 80.796875 13.496094 80.746094 13.703125 80.640625 13.890625 C 80.535156 14.074219 80.398438 14.226562 80.226562 14.355469 C 80.054688 14.484375 79.867188 14.59375 79.660156 14.679688 C 79.453125 14.765625 79.25 14.824219 79.054688 14.859375 C 79.03125 16.246094 78.976562 17.582031 78.898438 18.871094 C 78.820312 20.15625 78.695312 21.484375 78.523438 22.855469 L 78.628906 22.855469 C 78.828125 22.855469 79.019531 22.878906 79.207031 22.921875 C 79.398438 22.964844 79.570312 23.039062 79.722656 23.144531 C 79.875 23.246094 80 23.378906 80.089844 23.53125 C 80.179688 23.683594 80.226562 23.871094 80.226562 24.089844 C 80.226562 24.371094 80.136719 24.617188 79.960938 24.824219 C 79.785156 25.035156 79.554688 25.210938 79.265625 25.355469 C 78.976562 25.503906 78.65625 25.628906 78.304688 25.726562 C 77.949219 25.824219 77.59375 25.898438 77.238281 25.953125 C 76.882812 26.011719 76.550781 26.050781 76.230469 26.074219 C 75.914062 26.101562 75.65625 26.113281 75.460938 26.113281 C 75.3125 26.113281 75.132812 26.105469 74.921875 26.09375 C 74.707031 26.082031 74.503906 26.042969 74.316406 25.980469 C 74.125 25.921875 73.964844 25.828125 73.828125 25.707031 C 73.691406 25.582031 73.625 25.417969 73.625 25.210938 C 73.625 24.953125 73.679688 24.722656 73.785156 24.519531 C 73.886719 24.320312 74.023438 24.140625 74.195312 23.976562 C 74.367188 23.820312 74.558594 23.691406 74.773438 23.59375 C 74.988281 23.496094 75.203125 23.421875 75.425781 23.371094 C 75.507812 22.699219 75.589844 22.027344 75.660156 21.359375 C 75.734375 20.691406 75.785156 20.015625 75.8125 19.328125 C 75.832031 18.632812 75.855469 17.941406 75.882812 17.261719 C 75.90625 16.582031 75.933594 15.898438 75.957031 15.210938 C 75.871094 15.222656 75.789062 15.230469 75.71875 15.238281 C 75.644531 15.246094 75.578125 15.25 75.515625 15.25 C 75.34375 15.25 75.160156 15.230469 74.964844 15.191406 C 74.769531 15.15625 74.585938 15.09375 74.414062 15 C 74.242188 14.90625 74.101562 14.792969 73.984375 14.660156 C 73.867188 14.527344 73.808594 14.355469 73.808594 14.144531 C 73.808594 13.730469 73.984375 13.386719 74.332031 13.117188 C 74.683594 12.847656 75.097656 12.636719 75.578125 12.488281 C 76.0625 12.34375 76.554688 12.242188 77.058594 12.1875 C 77.558594 12.132812 77.960938 12.105469 78.265625 12.105469 C 78.4375 12.105469 78.660156 12.117188 78.941406 12.144531 C 79.226562 12.164062 79.503906 12.21875 79.78125 12.308594 C 80.054688 12.394531 80.292969 12.507812 80.492188 12.65625 C 80.695312 12.804688 80.796875 13.007812 80.796875 13.265625 Z M 89.046875 22.855469 C 89.046875 23.089844 88.984375 23.316406 88.863281 23.539062 C 88.738281 23.746094 88.453125 23.992188 88 24.273438 C 87.546875 24.554688 87.046875 24.824219 86.496094 25.074219 C 85.945312 25.324219 85.414062 25.539062 84.902344 25.71875 C 84.386719 25.894531 84.007812 25.980469 83.761719 25.980469 C 83.59375 25.980469 83.390625 25.941406 83.160156 25.863281 C 82.925781 25.785156 82.695312 25.683594 82.464844 25.558594 C 82.230469 25.4375 82.019531 25.296875 81.828125 25.136719 C 81.640625 24.976562 81.503906 24.824219 81.417969 24.679688 C 81.367188 24.59375 81.324219 24.421875 81.28125 24.164062 C 81.238281 23.90625 81.203125 23.605469 81.167969 23.261719 C 81.140625 22.917969 81.113281 22.554688 81.089844 22.167969 C 81.066406 21.78125 81.042969 21.414062 81.023438 21.066406 C 81.003906 20.714844 80.992188 20.40625 80.988281 20.136719 C 80.980469 19.867188 80.976562 19.671875 80.976562 19.546875 C 80.976562 19.097656 80.992188 18.574219 81.023438 17.984375 C 81.054688 17.398438 81.113281 16.808594 81.199219 16.210938 C 81.285156 15.617188 81.410156 15.046875 81.574219 14.503906 C 81.738281 13.957031 81.960938 13.496094 82.242188 13.117188 C 82.328125 13.007812 82.5 12.890625 82.757812 12.769531 C 83.011719 12.644531 83.316406 12.527344 83.664062 12.417969 C 84.011719 12.308594 84.390625 12.203125 84.792969 12.105469 C 85.195312 12.007812 85.582031 11.925781 85.957031 11.855469 C 86.328125 11.789062 86.667969 11.734375 86.972656 11.691406 C 87.277344 11.648438 87.511719 11.628906 87.667969 11.628906 C 87.851562 11.628906 88.027344 11.667969 88.195312 11.746094 C 88.359375 11.824219 88.5 11.933594 88.613281 12.066406 C 88.730469 12.203125 88.820312 12.355469 88.886719 12.519531 C 88.957031 12.683594 88.988281 12.859375 88.988281 13.042969 C 88.988281 13.199219 88.96875 13.335938 88.925781 13.445312 C 88.882812 13.554688 88.820312 13.679688 88.734375 13.8125 C 88.613281 13.976562 88.355469 14.164062 87.964844 14.382812 C 87.570312 14.605469 87.144531 14.820312 86.6875 15.039062 C 86.230469 15.25 85.789062 15.445312 85.371094 15.617188 C 84.945312 15.789062 84.652344 15.910156 84.480469 15.984375 C 84.429688 16.265625 84.378906 16.550781 84.324219 16.835938 C 84.269531 17.125 84.230469 17.417969 84.207031 17.710938 C 84.585938 17.515625 85.011719 17.332031 85.488281 17.160156 C 85.964844 16.988281 86.417969 16.902344 86.847656 16.902344 C 87.710938 16.902344 88.144531 17.332031 88.144531 18.1875 C 88.144531 18.398438 88.105469 18.582031 88.027344 18.742188 C 87.949219 18.898438 87.84375 19.039062 87.71875 19.164062 C 87.585938 19.285156 87.4375 19.394531 87.273438 19.484375 C 87.109375 19.578125 86.949219 19.664062 86.789062 19.75 C 86.398438 19.960938 85.988281 20.140625 85.5625 20.292969 C 85.132812 20.445312 84.707031 20.597656 84.277344 20.746094 C 84.253906 20.84375 84.230469 20.949219 84.207031 21.066406 C 84.179688 21.183594 84.167969 21.296875 84.167969 21.40625 C 84.167969 21.578125 84.179688 21.75 84.207031 21.917969 C 84.230469 22.09375 84.253906 22.265625 84.277344 22.433594 C 84.425781 22.386719 84.660156 22.308594 84.984375 22.199219 C 85.308594 22.085938 85.648438 21.976562 86 21.867188 C 86.355469 21.757812 86.699219 21.660156 87.03125 21.582031 C 87.359375 21.5 87.601562 21.460938 87.761719 21.460938 C 87.945312 21.460938 88.117188 21.5 88.277344 21.582031 C 88.433594 21.660156 88.566406 21.765625 88.679688 21.894531 C 88.789062 22.019531 88.878906 22.171875 88.945312 22.34375 C 89.011719 22.515625 89.046875 22.6875 89.046875 22.855469 Z M 95.679688 12.839844 C 95.679688 13.121094 95.589844 13.367188 95.414062 13.578125 C 95.234375 13.785156 95.027344 13.957031 94.78125 14.089844 C 94.5625 14.226562 94.335938 14.367188 94.105469 14.523438 C 93.871094 14.675781 93.65625 14.847656 93.460938 15.039062 C 93.265625 15.226562 93.105469 15.4375 92.984375 15.671875 C 92.863281 15.902344 92.800781 16.167969 92.800781 16.460938 C 92.800781 16.71875 92.863281 16.953125 92.984375 17.160156 C 93.105469 17.371094 93.257812 17.574219 93.433594 17.773438 C 93.613281 17.976562 93.808594 18.1875 94.019531 18.398438 C 94.234375 18.617188 94.429688 18.855469 94.605469 19.117188 C 94.785156 19.382812 94.933594 19.679688 95.058594 20.011719 C 95.179688 20.339844 95.242188 20.722656 95.242188 21.167969 C 95.242188 21.472656 95.175781 21.820312 95.050781 22.207031 C 94.917969 22.589844 94.746094 22.980469 94.523438 23.371094 C 94.304688 23.765625 94.042969 24.144531 93.746094 24.511719 C 93.445312 24.878906 93.128906 25.207031 92.792969 25.496094 C 92.457031 25.785156 92.105469 26.015625 91.738281 26.195312 C 91.371094 26.371094 91.019531 26.460938 90.675781 26.460938 C 90.296875 26.460938 89.960938 26.355469 89.664062 26.148438 C 89.371094 25.9375 89.226562 25.625 89.226562 25.210938 C 89.226562 24.929688 89.292969 24.667969 89.429688 24.429688 C 89.5625 24.191406 89.730469 23.960938 89.925781 23.742188 C 90.121094 23.519531 90.335938 23.304688 90.574219 23.097656 C 90.8125 22.890625 91.027344 22.679688 91.222656 22.472656 C 91.421875 22.265625 91.585938 22.046875 91.71875 21.820312 C 91.855469 21.59375 91.921875 21.351562 91.921875 21.09375 C 91.921875 20.738281 91.796875 20.375 91.546875 20 C 91.296875 19.625 91.019531 19.238281 90.714844 18.84375 C 90.40625 18.445312 90.128906 18.035156 89.878906 17.621094 C 89.625 17.203125 89.5 16.78125 89.5 16.351562 C 89.5 15.824219 89.640625 15.269531 89.925781 14.6875 C 90.203125 14.105469 90.566406 13.570312 91.007812 13.085938 C 91.445312 12.601562 91.941406 12.203125 92.488281 11.882812 C 93.039062 11.5625 93.585938 11.40625 94.121094 11.40625 C 94.550781 11.40625 94.917969 11.535156 95.222656 11.792969 C 95.527344 12.046875 95.679688 12.398438 95.679688 12.839844 Z M 104.261719 13.1875 C 104.261719 13.496094 104.140625 13.773438 103.902344 14.023438 C 103.664062 14.277344 103.375 14.496094 103.039062 14.6875 C 102.703125 14.878906 102.359375 15.035156 102.003906 15.15625 C 101.652344 15.277344 101.359375 15.363281 101.125 15.414062 C 101.027344 16.359375 100.949219 17.296875 100.894531 18.234375 C 100.839844 19.171875 100.8125 20.113281 100.8125 21.058594 C 100.8125 21.558594 100.824219 22.054688 100.851562 22.542969 C 100.875 23.035156 100.882812 23.527344 100.882812 24.015625 C 100.882812 24.238281 100.863281 24.480469 100.820312 24.742188 C 100.777344 25.007812 100.707031 25.253906 100.601562 25.488281 C 100.496094 25.71875 100.355469 25.914062 100.171875 26.074219 C 99.988281 26.234375 99.761719 26.3125 99.492188 26.3125 C 99.171875 26.3125 98.921875 26.222656 98.734375 26.046875 C 98.542969 25.871094 98.394531 25.652344 98.292969 25.394531 C 98.1875 25.136719 98.117188 24.867188 98.078125 24.578125 C 98.042969 24.289062 98.027344 24.027344 98.027344 23.792969 C 98.003906 23.058594 97.984375 22.320312 97.972656 21.582031 C 97.957031 20.839844 97.953125 20.097656 97.953125 19.347656 C 97.953125 18.722656 97.957031 18.109375 97.964844 17.507812 C 97.96875 16.90625 97.972656 16.296875 97.972656 15.671875 C 97.800781 15.695312 97.625 15.714844 97.449219 15.726562 C 97.269531 15.738281 97.089844 15.746094 96.910156 15.746094 C 96.761719 15.746094 96.566406 15.730469 96.332031 15.699219 C 96.09375 15.667969 95.863281 15.613281 95.644531 15.535156 C 95.421875 15.453125 95.234375 15.34375 95.074219 15.203125 C 94.914062 15.0625 94.835938 14.882812 94.835938 14.660156 C 94.835938 14.292969 94.980469 13.96875 95.265625 13.695312 C 95.554688 13.417969 95.921875 13.179688 96.367188 12.980469 C 96.8125 12.773438 97.308594 12.601562 97.851562 12.460938 C 98.394531 12.324219 98.933594 12.210938 99.464844 12.132812 C 99.996094 12.054688 100.484375 11.996094 100.933594 11.957031 C 101.378906 11.921875 101.722656 11.902344 101.96875 11.902344 C 102.199219 11.902344 102.445312 11.910156 102.710938 11.933594 C 102.972656 11.949219 103.21875 12 103.453125 12.085938 C 103.683594 12.171875 103.878906 12.300781 104.03125 12.472656 C 104.183594 12.644531 104.261719 12.882812 104.261719 13.1875 Z M 112.382812 23.023438 C 112.382812 23.269531 112.359375 23.5625 112.316406 23.90625 C 112.273438 24.25 112.191406 24.574219 112.070312 24.890625 C 111.945312 25.199219 111.78125 25.464844 111.574219 25.679688 C 111.367188 25.894531 111.089844 26 110.746094 26 C 110.296875 26 109.957031 25.835938 109.730469 25.507812 C 109.503906 25.175781 109.34375 24.78125 109.246094 24.320312 C 109.148438 23.859375 109.089844 23.390625 109.070312 22.914062 C 109.050781 22.4375 109.039062 22.054688 109.023438 21.773438 C 108.144531 21.921875 107.277344 22.050781 106.421875 22.160156 C 106.398438 22.441406 106.34375 22.789062 106.265625 23.207031 C 106.1875 23.625 106.066406 24.023438 105.902344 24.410156 C 105.734375 24.796875 105.523438 25.132812 105.257812 25.414062 C 104.996094 25.695312 104.675781 25.835938 104.292969 25.835938 C 104 25.835938 103.773438 25.726562 103.605469 25.515625 C 103.441406 25.300781 103.316406 25.046875 103.230469 24.75 C 103.144531 24.457031 103.09375 24.152344 103.078125 23.84375 C 103.058594 23.527344 103.046875 23.269531 103.046875 23.058594 C 103.046875 22.363281 103.101562 21.671875 103.210938 20.992188 C 103.324219 20.3125 103.453125 19.636719 103.597656 18.960938 C 103.671875 18.605469 103.769531 18.191406 103.890625 17.710938 C 104.015625 17.234375 104.164062 16.742188 104.34375 16.230469 C 104.519531 15.722656 104.726562 15.222656 104.964844 14.726562 C 105.203125 14.226562 105.476562 13.785156 105.78125 13.394531 C 106.085938 13 106.433594 12.679688 106.824219 12.4375 C 107.214844 12.191406 107.648438 12.066406 108.128906 12.066406 C 108.589844 12.066406 108.992188 12.171875 109.335938 12.378906 C 109.679688 12.589844 109.976562 12.863281 110.234375 13.207031 C 110.492188 13.550781 110.707031 13.941406 110.875 14.375 C 111.046875 14.808594 111.191406 15.25 111.308594 15.699219 C 111.421875 16.148438 111.519531 16.585938 111.601562 17.015625 C 111.679688 17.441406 111.75 17.820312 111.8125 18.152344 C 111.972656 18.949219 112.105469 19.753906 112.214844 20.566406 C 112.328125 21.382812 112.382812 22.203125 112.382812 23.023438 Z M 108.839844 19.089844 L 108.839844 18.558594 C 108.839844 18.410156 108.832031 18.167969 108.8125 17.832031 C 108.796875 17.496094 108.757812 17.15625 108.695312 16.816406 C 108.632812 16.480469 108.539062 16.183594 108.414062 15.917969 C 108.28125 15.65625 108.105469 15.523438 107.886719 15.523438 C 107.765625 15.523438 107.652344 15.605469 107.542969 15.773438 C 107.429688 15.9375 107.332031 16.144531 107.25 16.398438 C 107.160156 16.648438 107.082031 16.925781 107.015625 17.234375 C 106.949219 17.539062 106.894531 17.832031 106.84375 18.117188 C 106.796875 18.398438 106.757812 18.652344 106.734375 18.878906 C 106.710938 19.105469 106.691406 19.269531 106.679688 19.367188 C 107.410156 19.304688 108.132812 19.210938 108.839844 19.089844 Z M 116.230469 24.863281 C 116.230469 25.019531 116.195312 25.164062 116.121094 25.292969 C 116.046875 25.421875 115.949219 25.53125 115.835938 25.617188 C 115.71875 25.703125 115.589844 25.769531 115.449219 25.820312 C 115.308594 25.867188 115.164062 25.890625 115.019531 25.890625 C 114.835938 25.890625 114.636719 25.855469 114.421875 25.789062 C 114.207031 25.722656 114.011719 25.628906 113.839844 25.507812 C 113.660156 25.382812 113.511719 25.238281 113.386719 25.074219 C 113.265625 24.90625 113.203125 24.722656 113.203125 24.511719 C 113.203125 24.179688 113.34375 23.933594 113.628906 23.765625 C 113.90625 23.601562 114.195312 23.519531 114.488281 23.519531 C 114.671875 23.519531 114.863281 23.550781 115.066406 23.613281 C 115.265625 23.671875 115.457031 23.761719 115.632812 23.875 C 115.8125 23.996094 115.953125 24.136719 116.066406 24.300781 C 116.175781 24.46875 116.230469 24.65625 116.230469 24.863281 Z M 125.066406 16.390625 C 125.066406 16.621094 125.035156 16.863281 124.980469 17.125 C 124.925781 17.378906 124.839844 17.617188 124.714844 17.839844 C 124.59375 18.058594 124.4375 18.242188 124.238281 18.390625 C 124.042969 18.539062 123.804688 18.609375 123.523438 18.609375 C 123.097656 18.609375 122.777344 18.535156 122.570312 18.378906 C 122.363281 18.226562 122.21875 18.035156 122.132812 17.804688 C 122.046875 17.570312 122 17.324219 121.992188 17.058594 C 121.988281 16.796875 121.980469 16.546875 121.96875 16.3125 C 121.953125 16.082031 121.914062 15.886719 121.847656 15.734375 C 121.777344 15.582031 121.636719 15.503906 121.414062 15.503906 C 121.171875 15.503906 120.960938 15.59375 120.777344 15.773438 C 120.589844 15.949219 120.433594 16.179688 120.300781 16.460938 C 120.164062 16.742188 120.050781 17.058594 119.957031 17.417969 C 119.867188 17.773438 119.796875 18.125 119.742188 18.476562 C 119.683594 18.824219 119.644531 19.15625 119.621094 19.46875 C 119.59375 19.78125 119.582031 20.03125 119.582031 20.230469 C 119.582031 20.488281 119.589844 20.792969 119.609375 21.148438 C 119.628906 21.503906 119.6875 21.84375 119.785156 22.167969 C 119.882812 22.492188 120.03125 22.769531 120.226562 22.996094 C 120.421875 23.222656 120.703125 23.335938 121.070312 23.335938 C 121.3125 23.335938 121.550781 23.304688 121.78125 23.246094 C 122.015625 23.183594 122.25 23.113281 122.480469 23.035156 C 122.710938 22.953125 122.945312 22.882812 123.1875 22.824219 C 123.425781 22.761719 123.667969 22.730469 123.910156 22.730469 C 124.191406 22.730469 124.421875 22.84375 124.605469 23.070312 C 124.789062 23.296875 124.878906 23.550781 124.878906 23.832031 C 124.878906 24.222656 124.757812 24.589844 124.515625 24.925781 C 124.269531 25.261719 123.96875 25.5625 123.609375 25.820312 C 123.246094 26.074219 122.855469 26.277344 122.433594 26.425781 C 122.011719 26.570312 121.628906 26.644531 121.289062 26.644531 C 120.410156 26.644531 119.664062 26.445312 119.054688 26.046875 C 118.441406 25.648438 117.945312 25.132812 117.566406 24.5 C 117.1875 23.871094 116.917969 23.167969 116.75 22.390625 C 116.585938 21.613281 116.503906 20.835938 116.503906 20.0625 C 116.503906 19.550781 116.550781 18.984375 116.648438 18.375 C 116.746094 17.761719 116.894531 17.144531 117.089844 16.523438 C 117.285156 15.90625 117.53125 15.308594 117.832031 14.734375 C 118.132812 14.15625 118.484375 13.648438 118.886719 13.207031 C 119.292969 12.765625 119.746094 12.410156 120.25 12.144531 C 120.757812 11.871094 121.320312 11.734375 121.929688 11.734375 C 122.527344 11.734375 123.03125 11.886719 123.433594 12.1875 C 123.839844 12.488281 124.160156 12.871094 124.402344 13.328125 C 124.648438 13.789062 124.820312 14.289062 124.917969 14.835938 C 125.015625 15.378906 125.066406 15.898438 125.066406 16.390625 Z M 129.996094 26.351562 C 129.25 26.351562 128.605469 26.164062 128.054688 25.789062 C 127.503906 25.414062 127.046875 24.914062 126.6875 24.285156 C 126.324219 23.652344 126.058594 22.917969 125.878906 22.085938 C 125.703125 21.25 125.613281 20.375 125.613281 19.457031 C 125.613281 18.597656 125.707031 17.730469 125.898438 16.847656 C 126.089844 15.964844 126.378906 15.167969 126.769531 14.457031 C 127.160156 13.746094 127.652344 13.164062 128.253906 12.710938 C 128.851562 12.257812 129.570312 12.03125 130.398438 12.03125 C 131.207031 12.03125 131.878906 12.25 132.421875 12.683594 C 132.96875 13.117188 133.402344 13.683594 133.726562 14.375 C 134.050781 15.066406 134.28125 15.84375 134.425781 16.703125 C 134.566406 17.558594 134.636719 18.414062 134.636719 19.273438 C 134.636719 20.230469 134.539062 21.132812 134.351562 21.984375 C 134.160156 22.835938 133.871094 23.589844 133.488281 24.238281 C 133.105469 24.886719 132.621094 25.398438 132.039062 25.78125 C 131.460938 26.160156 130.777344 26.351562 129.996094 26.351562 Z M 130.214844 16.09375 C 129.984375 16.09375 129.785156 16.1875 129.617188 16.371094 C 129.453125 16.554688 129.316406 16.796875 129.207031 17.097656 C 129.097656 17.394531 129.015625 17.730469 128.96875 18.105469 C 128.917969 18.480469 128.894531 18.855469 128.894531 19.234375 C 128.894531 19.664062 128.921875 20.09375 128.976562 20.523438 C 129.03125 20.953125 129.113281 21.339844 129.226562 21.683594 C 129.335938 22.027344 129.472656 22.300781 129.636719 22.511719 C 129.804688 22.71875 130 22.824219 130.234375 22.824219 C 130.503906 22.824219 130.714844 22.6875 130.875 22.417969 C 131.035156 22.148438 131.160156 21.824219 131.253906 21.441406 C 131.34375 21.0625 131.402344 20.671875 131.4375 20.265625 C 131.464844 19.863281 131.480469 19.523438 131.480469 19.253906 C 131.480469 18.925781 131.460938 18.578125 131.417969 18.207031 C 131.375 17.839844 131.304688 17.5 131.207031 17.1875 C 131.109375 16.875 130.980469 16.617188 130.820312 16.40625 C 130.664062 16.199219 130.460938 16.09375 130.214844 16.09375 Z M 148.199219 23.742188 C 148.164062 24.058594 148.109375 24.371094 148.042969 24.679688 C 147.976562 24.984375 147.894531 25.257812 147.796875 25.496094 C 147.699219 25.734375 147.574219 25.921875 147.417969 26.0625 C 147.265625 26.207031 147.09375 26.277344 146.898438 26.277344 C 146.703125 26.277344 146.523438 26.128906 146.363281 25.828125 C 146.207031 25.527344 146.058594 25.128906 145.917969 24.632812 C 145.777344 24.136719 145.648438 23.574219 145.53125 22.949219 C 145.417969 22.324219 145.3125 21.691406 145.21875 21.046875 C 145.128906 20.402344 145.054688 19.777344 144.992188 19.164062 C 144.929688 18.550781 144.882812 18.019531 144.84375 17.5625 C 144.773438 18.03125 144.6875 18.550781 144.589844 19.125 C 144.492188 19.703125 144.375 20.289062 144.238281 20.878906 C 144.105469 21.476562 143.957031 22.058594 143.800781 22.625 C 143.640625 23.195312 143.46875 23.707031 143.285156 24.15625 C 143.101562 24.601562 142.90625 24.960938 142.699219 25.226562 C 142.492188 25.5 142.273438 25.632812 142.039062 25.632812 C 141.832031 25.632812 141.625 25.492188 141.417969 25.210938 C 141.207031 24.929688 141.007812 24.558594 140.8125 24.097656 C 140.617188 23.640625 140.433594 23.128906 140.257812 22.5625 C 140.089844 22 139.933594 21.433594 139.785156 20.863281 C 139.640625 20.296875 139.511719 19.757812 139.398438 19.246094 C 139.289062 18.738281 139.203125 18.3125 139.144531 17.96875 C 139.144531 18.226562 139.140625 18.511719 139.132812 18.824219 C 139.128906 19.136719 139.125 19.359375 139.125 19.496094 C 139.125 19.554688 139.121094 19.757812 139.113281 20.101562 C 139.109375 20.445312 139.089844 20.855469 139.050781 21.332031 C 139.015625 21.8125 138.960938 22.324219 138.886719 22.867188 C 138.8125 23.414062 138.707031 23.917969 138.566406 24.386719 C 138.425781 24.847656 138.253906 25.242188 138.042969 25.558594 C 137.835938 25.878906 137.582031 26.050781 137.273438 26.074219 C 137.03125 25.964844 136.824219 25.777344 136.660156 25.515625 C 136.492188 25.25 136.355469 24.941406 136.246094 24.585938 C 136.136719 24.230469 136.050781 23.851562 135.992188 23.449219 C 135.929688 23.042969 135.878906 22.648438 135.84375 22.261719 C 135.804688 21.875 135.785156 21.515625 135.78125 21.183594 C 135.773438 20.855469 135.769531 20.585938 135.769531 20.375 C 135.769531 20.007812 135.789062 19.546875 135.832031 18.992188 C 135.875 18.429688 135.945312 17.84375 136.042969 17.234375 C 136.140625 16.621094 136.269531 16.007812 136.429688 15.394531 C 136.585938 14.78125 136.78125 14.234375 137.007812 13.75 C 137.234375 13.265625 137.496094 12.871094 137.796875 12.566406 C 138.09375 12.257812 138.441406 12.105469 138.832031 12.105469 C 139.015625 12.105469 139.210938 12.210938 139.417969 12.417969 C 139.625 12.625 139.835938 12.898438 140.042969 13.234375 C 140.25 13.574219 140.449219 13.949219 140.644531 14.367188 C 140.839844 14.785156 141.027344 15.203125 141.207031 15.625 C 141.382812 16.046875 141.539062 16.449219 141.671875 16.835938 C 141.804688 17.222656 141.917969 17.550781 142 17.824219 C 142.097656 17.527344 142.222656 17.183594 142.371094 16.792969 C 142.515625 16.402344 142.679688 15.992188 142.855469 15.570312 C 143.03125 15.148438 143.226562 14.730469 143.445312 14.320312 C 143.65625 13.910156 143.878906 13.542969 144.113281 13.214844 C 144.34375 12.890625 144.578125 12.628906 144.816406 12.425781 C 145.054688 12.222656 145.296875 12.125 145.542969 12.125 C 145.96875 12.125 146.335938 12.285156 146.644531 12.601562 C 146.949219 12.921875 147.203125 13.332031 147.414062 13.839844 C 147.621094 14.351562 147.785156 14.917969 147.90625 15.550781 C 148.027344 16.183594 148.121094 16.808594 148.191406 17.429688 C 148.257812 18.046875 148.300781 18.625 148.316406 19.164062 C 148.335938 19.703125 148.347656 20.136719 148.347656 20.46875 C 148.347656 20.601562 148.347656 20.785156 148.347656 21.019531 C 148.347656 21.253906 148.34375 21.515625 148.335938 21.808594 C 148.332031 22.105469 148.316406 22.417969 148.289062 22.746094 C 148.265625 23.078125 148.234375 23.410156 148.199219 23.742188 Z M 148.199219 23.742188 "/>
</g>
<g clip-path="url(#clip3)" clip-rule="nonzero">
<path style=" stroke:none;fill-rule:nonzero;fill:rgb(52.156863%,7.843137%,29.411765%);fill-opacity:1;" d="M 56.492188 46.300781 L 56.617188 47.859375 C 55.957031 47.910156 55.300781 47.957031 54.644531 48.003906 C 53.996094 48.046875 53.339844 48.089844 52.675781 48.128906 C 52.648438 47.066406 52.625 46.007812 52.609375 44.957031 C 52.59375 43.910156 52.5625 42.847656 52.519531 41.78125 C 52.890625 41.773438 53.257812 41.761719 53.617188 41.746094 C 53.980469 41.730469 54.34375 41.707031 54.710938 41.679688 C 54.648438 42.09375 54.589844 42.503906 54.539062 42.921875 C 54.488281 43.335938 54.445312 43.75 54.417969 44.167969 C 54.394531 44.519531 54.378906 44.867188 54.363281 45.21875 C 54.347656 45.566406 54.335938 45.914062 54.324219 46.265625 C 54.691406 46.277344 55.054688 46.28125 55.414062 46.28125 C 55.773438 46.28125 56.132812 46.289062 56.492188 46.300781 Z M 62.875 44.96875 C 62.144531 45.011719 61.421875 45.042969 60.699219 45.066406 C 59.976562 45.09375 59.253906 45.117188 58.523438 45.144531 C 58.519531 45.167969 58.515625 45.191406 58.515625 45.210938 C 58.515625 45.234375 58.515625 45.257812 58.515625 45.28125 C 58.515625 45.46875 58.558594 45.613281 58.644531 45.714844 C 58.730469 45.8125 58.839844 45.886719 58.964844 45.929688 C 59.09375 45.96875 59.234375 45.992188 59.390625 46 C 59.546875 46.003906 59.691406 46.007812 59.824219 46.007812 C 60.195312 46.007812 60.570312 45.992188 60.941406 45.96875 C 61.3125 45.945312 61.6875 45.917969 62.066406 45.890625 L 62.132812 47.21875 C 61.765625 47.234375 61.398438 47.25 61.035156 47.257812 C 60.671875 47.269531 60.308594 47.277344 59.941406 47.277344 C 59.863281 47.277344 59.71875 47.273438 59.511719 47.273438 C 59.304688 47.269531 59.082031 47.261719 58.84375 47.246094 C 58.609375 47.234375 58.390625 47.214844 58.183594 47.191406 C 57.976562 47.171875 57.839844 47.140625 57.777344 47.101562 C 57.601562 47 57.46875 46.871094 57.371094 46.714844 C 57.273438 46.558594 57.199219 46.390625 57.144531 46.207031 C 57.09375 46.023438 57.058594 45.835938 57.039062 45.644531 C 57.019531 45.453125 57.003906 45.265625 57 45.089844 C 56.996094 45.058594 56.992188 45.03125 56.996094 45 C 57 44.96875 57 44.941406 57 44.910156 C 57 44.617188 57.03125 44.34375 57.097656 44.089844 C 57.160156 43.835938 57.277344 43.589844 57.449219 43.351562 C 57.566406 43.183594 57.738281 43.042969 57.964844 42.933594 C 58.195312 42.820312 58.441406 42.734375 58.707031 42.667969 C 58.976562 42.605469 59.242188 42.5625 59.507812 42.535156 C 59.773438 42.511719 60.003906 42.496094 60.199219 42.496094 C 60.371094 42.496094 60.582031 42.511719 60.832031 42.542969 C 61.082031 42.574219 61.332031 42.625 61.578125 42.699219 C 61.824219 42.769531 62.050781 42.863281 62.25 42.980469 C 62.449219 43.09375 62.585938 43.234375 62.65625 43.402344 C 62.667969 43.433594 62.679688 43.492188 62.695312 43.574219 C 62.707031 43.652344 62.722656 43.742188 62.742188 43.847656 C 62.757812 43.949219 62.773438 44.058594 62.785156 44.179688 C 62.800781 44.292969 62.8125 44.40625 62.824219 44.511719 C 62.835938 44.617188 62.84375 44.710938 62.851562 44.796875 C 62.859375 44.878906 62.867188 44.9375 62.875 44.96875 Z M 58.957031 44.453125 L 61.742188 44.359375 C 61.707031 44.117188 61.644531 43.921875 61.554688 43.78125 C 61.460938 43.636719 61.347656 43.53125 61.210938 43.460938 C 61.074219 43.394531 60.917969 43.347656 60.746094 43.328125 C 60.570312 43.308594 60.382812 43.300781 60.183594 43.300781 C 60.117188 43.300781 60.03125 43.300781 59.933594 43.304688 C 59.832031 43.308594 59.734375 43.316406 59.632812 43.328125 C 59.535156 43.34375 59.4375 43.363281 59.351562 43.394531 C 59.261719 43.421875 59.191406 43.457031 59.140625 43.507812 C 59.101562 43.542969 59.070312 43.589844 59.046875 43.648438 C 59.019531 43.707031 59 43.769531 58.984375 43.835938 C 58.964844 43.902344 58.953125 43.96875 58.945312 44.03125 C 58.9375 44.09375 58.933594 44.148438 58.933594 44.191406 C 58.933594 44.28125 58.941406 44.367188 58.957031 44.453125 Z M 67.574219 46.589844 L 67.429688 48.0625 C 67.253906 48.074219 67.074219 48.082031 66.898438 48.089844 C 66.71875 48.097656 66.542969 48.105469 66.363281 48.105469 C 66.269531 48.105469 66.144531 48.101562 65.988281 48.09375 C 65.832031 48.089844 65.671875 48.078125 65.507812 48.066406 C 65.339844 48.050781 65.179688 48.03125 65.03125 48.007812 C 64.882812 47.980469 64.761719 47.949219 64.671875 47.910156 C 64.539062 47.851562 64.429688 47.769531 64.34375 47.667969 C 64.257812 47.570312 64.1875 47.460938 64.132812 47.339844 C 64.074219 47.21875 64.03125 47.089844 64 46.953125 C 63.964844 46.820312 63.941406 46.683594 63.921875 46.550781 C 63.90625 46.421875 63.894531 46.285156 63.886719 46.136719 C 63.878906 45.988281 63.871094 45.835938 63.867188 45.679688 C 63.867188 45.523438 63.863281 45.375 63.863281 45.226562 C 63.863281 45.078125 63.863281 44.941406 63.863281 44.8125 L 63.863281 44.5625 L 63.347656 44.5625 C 63.371094 44.308594 63.382812 44.0625 63.386719 43.820312 C 63.386719 43.574219 63.402344 43.324219 63.421875 43.074219 L 63.921875 43.089844 L 63.921875 41.855469 C 64.238281 41.917969 64.554688 41.949219 64.867188 41.949219 C 65.183594 41.953125 65.496094 41.964844 65.8125 41.988281 L 65.796875 43.265625 L 66.496094 43.308594 C 66.496094 43.347656 66.5 43.382812 66.5 43.417969 C 66.503906 43.449219 66.507812 43.488281 66.507812 43.527344 C 66.507812 43.679688 66.492188 43.832031 66.46875 43.980469 C 66.445312 44.128906 66.410156 44.277344 66.371094 44.425781 L 65.765625 44.425781 C 65.753906 44.683594 65.746094 44.941406 65.738281 45.195312 C 65.734375 45.453125 65.730469 45.707031 65.730469 45.964844 C 65.730469 46.085938 65.734375 46.195312 65.742188 46.292969 C 65.75 46.390625 65.773438 46.472656 65.808594 46.539062 C 65.847656 46.609375 65.90625 46.65625 65.988281 46.691406 C 66.074219 46.726562 66.1875 46.742188 66.339844 46.742188 C 66.546875 46.742188 66.75 46.726562 66.957031 46.699219 C 67.160156 46.671875 67.367188 46.636719 67.574219 46.589844 Z M 67.488281 41.753906 L 68.769531 41.863281 C 68.761719 42.285156 68.742188 42.707031 68.710938 43.121094 C 68.683594 43.535156 68.664062 43.957031 68.65625 44.386719 L 67.6875 44.4375 C 67.660156 43.984375 67.628906 43.539062 67.601562 43.09375 C 67.570312 42.652344 67.535156 42.207031 67.488281 41.753906 Z M 74.078125 42.273438 L 74.027344 43.359375 C 73.855469 43.347656 73.683594 43.339844 73.511719 43.332031 C 73.339844 43.328125 73.167969 43.324219 72.996094 43.324219 C 72.921875 43.324219 72.820312 43.328125 72.6875 43.328125 C 72.554688 43.332031 72.40625 43.335938 72.242188 43.339844 C 72.078125 43.347656 71.910156 43.355469 71.738281 43.367188 C 71.566406 43.378906 71.40625 43.390625 71.261719 43.402344 C 71.117188 43.410156 70.996094 43.425781 70.894531 43.441406 C 70.792969 43.460938 70.734375 43.476562 70.710938 43.492188 C 70.640625 43.566406 70.601562 43.648438 70.601562 43.742188 C 70.601562 43.804688 70.621094 43.855469 70.652344 43.894531 C 70.664062 43.910156 70.726562 43.921875 70.835938 43.933594 C 70.949219 43.945312 71.085938 43.957031 71.246094 43.964844 C 71.40625 43.972656 71.582031 43.976562 71.773438 43.980469 C 71.964844 43.984375 72.148438 43.984375 72.324219 43.988281 C 72.5 43.992188 72.65625 43.996094 72.789062 44 C 72.925781 44.007812 73.023438 44.011719 73.078125 44.019531 C 73.289062 44.046875 73.457031 44.105469 73.582031 44.203125 C 73.707031 44.296875 73.804688 44.414062 73.871094 44.558594 C 73.9375 44.699219 73.980469 44.859375 74 45.039062 C 74.019531 45.214844 74.027344 45.398438 74.027344 45.582031 C 74.027344 45.667969 74.019531 45.773438 74.007812 45.898438 C 73.992188 46.019531 73.972656 46.144531 73.945312 46.265625 C 73.917969 46.386719 73.875 46.503906 73.824219 46.609375 C 73.769531 46.714844 73.707031 46.796875 73.636719 46.859375 C 73.554688 46.925781 73.417969 46.980469 73.230469 47.027344 C 73.046875 47.070312 72.84375 47.105469 72.632812 47.132812 C 72.417969 47.164062 72.210938 47.183594 72.011719 47.191406 C 71.8125 47.203125 71.660156 47.210938 71.554688 47.210938 C 71.1875 47.210938 70.820312 47.1875 70.453125 47.144531 C 70.085938 47.105469 69.722656 47.058594 69.363281 47.007812 L 69.363281 45.414062 C 69.714844 45.484375 70.066406 45.527344 70.417969 45.539062 C 70.769531 45.550781 71.125 45.570312 71.476562 45.597656 C 71.550781 45.601562 71.660156 45.609375 71.808594 45.609375 C 71.953125 45.613281 72.101562 45.609375 72.253906 45.601562 C 72.402344 45.59375 72.539062 45.574219 72.660156 45.546875 C 72.785156 45.519531 72.859375 45.480469 72.886719 45.429688 C 72.898438 45.414062 72.902344 45.394531 72.902344 45.371094 C 72.902344 45.347656 72.902344 45.328125 72.902344 45.3125 C 72.902344 45.269531 72.898438 45.210938 72.890625 45.144531 C 72.882812 45.074219 72.863281 45.019531 72.835938 44.976562 C 72.832031 44.972656 72.8125 44.96875 72.777344 44.964844 C 72.746094 44.964844 72.726562 44.964844 72.71875 44.964844 C 72.410156 44.945312 72.097656 44.9375 71.789062 44.933594 C 71.476562 44.929688 71.160156 44.914062 70.84375 44.886719 C 70.71875 44.875 70.589844 44.863281 70.457031 44.851562 C 70.328125 44.835938 70.199219 44.8125 70.070312 44.785156 C 69.964844 44.765625 69.867188 44.738281 69.78125 44.710938 C 69.695312 44.683594 69.621094 44.648438 69.558594 44.605469 C 69.492188 44.558594 69.4375 44.503906 69.394531 44.433594 C 69.351562 44.363281 69.320312 44.269531 69.304688 44.152344 C 69.292969 44.113281 69.289062 44.074219 69.289062 44.039062 C 69.289062 44.003906 69.289062 43.960938 69.289062 43.917969 C 69.289062 43.816406 69.292969 43.703125 69.304688 43.574219 C 69.316406 43.449219 69.335938 43.320312 69.367188 43.191406 C 69.398438 43.0625 69.4375 42.941406 69.484375 42.828125 C 69.53125 42.714844 69.59375 42.621094 69.671875 42.546875 C 69.722656 42.5 69.808594 42.457031 69.9375 42.421875 C 70.066406 42.390625 70.210938 42.359375 70.378906 42.335938 C 70.546875 42.308594 70.722656 42.289062 70.910156 42.273438 C 71.101562 42.257812 71.28125 42.242188 71.457031 42.234375 C 71.632812 42.226562 71.792969 42.222656 71.933594 42.21875 C 72.074219 42.214844 72.179688 42.214844 72.253906 42.214844 C 72.566406 42.214844 72.871094 42.21875 73.175781 42.230469 C 73.476562 42.242188 73.777344 42.257812 74.078125 42.273438 Z M 83.789062 45.113281 C 83.789062 45.347656 83.789062 45.578125 83.789062 45.808594 C 83.785156 46.042969 83.785156 46.273438 83.785156 46.507812 C 83.777344 46.628906 83.777344 46.753906 83.777344 46.882812 C 83.78125 47.011719 83.777344 47.140625 83.765625 47.265625 C 83.75 47.390625 83.734375 47.519531 83.714844 47.65625 C 83.699219 47.792969 83.671875 47.925781 83.632812 48.0625 C 83.59375 48.195312 83.542969 48.320312 83.476562 48.4375 C 83.414062 48.554688 83.328125 48.652344 83.222656 48.738281 C 83.195312 48.761719 83.140625 48.78125 83.058594 48.796875 C 82.976562 48.8125 82.878906 48.828125 82.765625 48.847656 C 82.65625 48.863281 82.535156 48.878906 82.410156 48.890625 C 82.28125 48.898438 82.160156 48.910156 82.042969 48.917969 C 81.925781 48.925781 81.820312 48.933594 81.722656 48.941406 C 81.628906 48.953125 81.5625 48.957031 81.523438 48.957031 C 81.175781 48.964844 80.828125 48.972656 80.488281 48.980469 C 80.144531 48.984375 79.800781 48.988281 79.449219 48.988281 L 78.917969 48.988281 C 78.90625 48.894531 78.894531 48.796875 78.882812 48.695312 C 78.875 48.59375 78.867188 48.496094 78.867188 48.394531 C 78.867188 48.285156 78.855469 48.167969 78.835938 48.050781 C 78.8125 47.929688 78.789062 47.8125 78.757812 47.691406 L 79.308594 47.703125 C 79.34375 47.703125 79.4375 47.699219 79.589844 47.699219 C 79.742188 47.695312 79.917969 47.691406 80.125 47.691406 C 80.332031 47.6875 80.550781 47.679688 80.789062 47.671875 C 81.023438 47.664062 81.242188 47.652344 81.441406 47.636719 C 81.640625 47.617188 81.8125 47.597656 81.953125 47.578125 C 82.097656 47.554688 82.175781 47.527344 82.191406 47.5 C 82.234375 47.429688 82.265625 47.347656 82.277344 47.253906 C 82.285156 47.164062 82.292969 47.074219 82.292969 46.992188 C 82.292969 46.949219 82.289062 46.902344 82.289062 46.855469 C 82.285156 46.808594 82.28125 46.761719 82.277344 46.714844 C 81.964844 46.738281 81.65625 46.757812 81.351562 46.773438 C 81.042969 46.792969 80.734375 46.800781 80.417969 46.800781 C 80.34375 46.800781 80.253906 46.800781 80.144531 46.800781 C 80.039062 46.800781 79.925781 46.796875 79.8125 46.792969 C 79.699219 46.785156 79.589844 46.777344 79.480469 46.765625 C 79.371094 46.757812 79.285156 46.738281 79.21875 46.714844 C 79.105469 46.683594 78.992188 46.644531 78.878906 46.605469 C 78.765625 46.5625 78.660156 46.511719 78.558594 46.449219 C 78.460938 46.386719 78.371094 46.3125 78.296875 46.226562 C 78.222656 46.140625 78.171875 46.039062 78.144531 45.914062 C 78.125 45.855469 78.117188 45.785156 78.113281 45.714844 C 78.109375 45.640625 78.109375 45.574219 78.109375 45.515625 C 78.109375 45.359375 78.117188 45.160156 78.132812 44.921875 C 78.152344 44.679688 78.179688 44.4375 78.222656 44.191406 C 78.261719 43.941406 78.320312 43.707031 78.390625 43.488281 C 78.457031 43.269531 78.546875 43.101562 78.652344 42.992188 C 78.710938 42.925781 78.808594 42.867188 78.945312 42.816406 C 79.082031 42.765625 79.238281 42.722656 79.410156 42.691406 C 79.582031 42.65625 79.761719 42.628906 79.953125 42.601562 C 80.144531 42.578125 80.332031 42.558594 80.515625 42.546875 C 80.699219 42.539062 80.867188 42.53125 81.019531 42.523438 C 81.175781 42.519531 81.292969 42.515625 81.382812 42.515625 C 81.695312 42.515625 82.007812 42.523438 82.316406 42.539062 L 82.375 42.003906 L 83.773438 42.214844 C 83.78125 42.699219 83.785156 43.179688 83.789062 43.660156 C 83.789062 44.136719 83.789062 44.621094 83.789062 45.113281 Z M 82.316406 44.953125 C 82.316406 44.777344 82.3125 44.601562 82.308594 44.433594 C 82.300781 44.261719 82.292969 44.089844 82.285156 43.910156 C 82.039062 43.855469 81.796875 43.808594 81.550781 43.777344 C 81.304688 43.742188 81.054688 43.726562 80.800781 43.726562 C 80.753906 43.726562 80.6875 43.730469 80.601562 43.734375 C 80.511719 43.742188 80.417969 43.75 80.320312 43.765625 C 80.222656 43.777344 80.132812 43.796875 80.050781 43.820312 C 79.96875 43.847656 79.910156 43.875 79.875 43.910156 C 79.828125 43.964844 79.796875 44.03125 79.785156 44.101562 C 79.773438 44.175781 79.765625 44.246094 79.765625 44.320312 C 79.765625 44.378906 79.773438 44.472656 79.789062 44.597656 C 79.800781 44.722656 79.820312 44.855469 79.84375 44.988281 C 79.863281 45.121094 79.894531 45.246094 79.925781 45.363281 C 79.960938 45.480469 79.992188 45.5625 80.023438 45.605469 C 80.058594 45.652344 80.101562 45.683594 80.152344 45.707031 C 80.203125 45.726562 80.253906 45.742188 80.3125 45.75 C 80.371094 45.757812 80.429688 45.765625 80.488281 45.769531 C 80.546875 45.769531 80.597656 45.773438 80.644531 45.773438 C 80.753906 45.773438 80.886719 45.769531 81.046875 45.761719 C 81.207031 45.753906 81.363281 45.738281 81.519531 45.714844 C 81.679688 45.691406 81.828125 45.660156 81.964844 45.617188 C 82.105469 45.574219 82.210938 45.519531 82.285156 45.445312 C 82.292969 45.441406 82.300781 45.414062 82.308594 45.363281 C 82.3125 45.3125 82.316406 45.261719 82.316406 45.203125 C 82.316406 45.148438 82.316406 45.09375 82.316406 45.046875 C 82.316406 44.996094 82.316406 44.964844 82.316406 44.953125 Z M 90.390625 44.96875 C 89.660156 45.011719 88.9375 45.042969 88.214844 45.066406 C 87.492188 45.09375 86.769531 45.117188 86.042969 45.144531 C 86.035156 45.167969 86.03125 45.191406 86.03125 45.210938 C 86.03125 45.234375 86.03125 45.257812 86.03125 45.28125 C 86.03125 45.46875 86.074219 45.613281 86.160156 45.714844 C 86.246094 45.8125 86.355469 45.886719 86.480469 45.929688 C 86.609375 45.96875 86.75 45.992188 86.90625 46 C 87.0625 46.003906 87.207031 46.007812 87.339844 46.007812 C 87.710938 46.007812 88.085938 45.992188 88.457031 45.96875 C 88.828125 45.945312 89.203125 45.917969 89.582031 45.890625 L 89.648438 47.21875 C 89.28125 47.234375 88.917969 47.25 88.554688 47.257812 C 88.1875 47.269531 87.824219 47.277344 87.457031 47.277344 C 87.378906 47.277344 87.234375 47.273438 87.027344 47.273438 C 86.820312 47.269531 86.597656 47.261719 86.363281 47.246094 C 86.125 47.234375 85.902344 47.214844 85.699219 47.191406 C 85.492188 47.171875 85.359375 47.140625 85.289062 47.101562 C 85.117188 47 84.984375 46.871094 84.886719 46.714844 C 84.789062 46.558594 84.714844 46.390625 84.660156 46.207031 C 84.609375 46.023438 84.574219 45.835938 84.554688 45.644531 C 84.535156 45.453125 84.523438 45.265625 84.515625 45.089844 C 84.511719 45.058594 84.507812 45.03125 84.511719 45 C 84.515625 44.96875 84.515625 44.941406 84.515625 44.910156 C 84.515625 44.617188 84.546875 44.34375 84.613281 44.089844 C 84.675781 43.835938 84.792969 43.589844 84.964844 43.351562 C 85.082031 43.183594 85.253906 43.042969 85.480469 42.933594 C 85.710938 42.820312 85.957031 42.734375 86.222656 42.667969 C 86.488281 42.605469 86.757812 42.5625 87.023438 42.535156 C 87.289062 42.511719 87.519531 42.496094 87.714844 42.496094 C 87.886719 42.496094 88.097656 42.511719 88.347656 42.542969 C 88.597656 42.574219 88.847656 42.625 89.09375 42.699219 C 89.339844 42.769531 89.5625 42.863281 89.765625 42.980469 C 89.964844 43.09375 90.101562 43.234375 90.171875 43.402344 C 90.183594 43.433594 90.195312 43.492188 90.210938 43.574219 C 90.222656 43.652344 90.238281 43.742188 90.253906 43.847656 C 90.273438 43.949219 90.289062 44.058594 90.300781 44.179688 C 90.316406 44.292969 90.328125 44.40625 90.339844 44.511719 C 90.351562 44.617188 90.359375 44.710938 90.367188 44.796875 C 90.375 44.878906 90.382812 44.9375 90.390625 44.96875 Z M 86.472656 44.453125 L 89.253906 44.359375 C 89.222656 44.117188 89.160156 43.921875 89.066406 43.78125 C 88.976562 43.636719 88.863281 43.53125 88.726562 43.460938 C 88.589844 43.394531 88.4375 43.347656 88.261719 43.328125 C 88.085938 43.308594 87.898438 43.300781 87.699219 43.300781 C 87.632812 43.300781 87.550781 43.300781 87.449219 43.304688 C 87.347656 43.308594 87.25 43.316406 87.148438 43.328125 C 87.046875 43.34375 86.953125 43.363281 86.867188 43.394531 C 86.777344 43.421875 86.707031 43.457031 86.65625 43.507812 C 86.617188 43.542969 86.585938 43.589844 86.5625 43.648438 C 86.535156 43.707031 86.515625 43.769531 86.5 43.835938 C 86.480469 43.902344 86.46875 43.96875 86.460938 44.03125 C 86.453125 44.09375 86.449219 44.148438 86.449219 44.191406 C 86.449219 44.28125 86.457031 44.367188 86.472656 44.453125 Z M 95.085938 46.589844 L 94.945312 48.0625 C 94.769531 48.074219 94.589844 48.082031 94.414062 48.089844 C 94.234375 48.097656 94.058594 48.105469 93.878906 48.105469 C 93.785156 48.105469 93.660156 48.101562 93.503906 48.09375 C 93.351562 48.089844 93.1875 48.078125 93.023438 48.066406 C 92.855469 48.050781 92.699219 48.03125 92.546875 48.007812 C 92.398438 47.980469 92.277344 47.949219 92.1875 47.910156 C 92.054688 47.851562 91.945312 47.769531 91.859375 47.667969 C 91.773438 47.570312 91.703125 47.460938 91.644531 47.339844 C 91.589844 47.21875 91.546875 47.089844 91.511719 46.953125 C 91.480469 46.820312 91.457031 46.683594 91.4375 46.550781 C 91.421875 46.421875 91.410156 46.285156 91.402344 46.136719 C 91.394531 45.988281 91.386719 45.835938 91.386719 45.679688 C 91.382812 45.523438 91.378906 45.375 91.378906 45.226562 C 91.378906 45.078125 91.378906 44.941406 91.378906 44.8125 L 91.378906 44.5625 L 90.863281 44.5625 C 90.886719 44.308594 90.898438 44.0625 90.902344 43.820312 C 90.902344 43.574219 90.917969 43.324219 90.9375 43.074219 L 91.4375 43.089844 L 91.4375 41.855469 C 91.753906 41.917969 92.070312 41.949219 92.386719 41.949219 C 92.699219 41.953125 93.011719 41.964844 93.332031 41.988281 L 93.3125 43.265625 L 94.011719 43.308594 C 94.011719 43.347656 94.015625 43.382812 94.019531 43.417969 C 94.019531 43.449219 94.019531 43.488281 94.019531 43.527344 C 94.019531 43.679688 94.007812 43.832031 93.984375 43.980469 C 93.957031 44.128906 93.925781 44.277344 93.886719 44.425781 L 93.277344 44.425781 C 93.269531 44.683594 93.261719 44.941406 93.253906 45.195312 C 93.25 45.453125 93.246094 45.707031 93.246094 45.964844 C 93.246094 46.085938 93.25 46.195312 93.257812 46.292969 C 93.269531 46.390625 93.289062 46.472656 93.324219 46.539062 C 93.363281 46.609375 93.421875 46.65625 93.503906 46.691406 C 93.589844 46.726562 93.707031 46.742188 93.855469 46.742188 C 94.058594 46.742188 94.265625 46.726562 94.472656 46.699219 C 94.675781 46.671875 94.882812 46.636719 95.085938 46.589844 Z M 104.460938 45.222656 C 104.460938 45.300781 104.457031 45.382812 104.453125 45.476562 C 104.453125 45.566406 104.445312 45.660156 104.429688 45.753906 C 104.417969 45.851562 104.398438 45.941406 104.371094 46.027344 C 104.347656 46.113281 104.3125 46.191406 104.265625 46.257812 C 104.171875 46.394531 104.085938 46.515625 104 46.613281 C 103.917969 46.710938 103.828125 46.789062 103.730469 46.855469 C 103.632812 46.917969 103.523438 46.96875 103.402344 47.007812 C 103.28125 47.046875 103.136719 47.078125 102.96875 47.101562 C 102.71875 47.140625 102.472656 47.175781 102.226562 47.207031 C 101.980469 47.234375 101.734375 47.25 101.484375 47.25 C 101.375 47.25 101.261719 47.246094 101.144531 47.234375 C 101.027344 47.222656 100.917969 47.1875 100.820312 47.125 C 100.761719 47.097656 100.703125 47.058594 100.640625 47.011719 C 100.578125 46.964844 100.511719 46.914062 100.453125 46.863281 C 100.390625 46.808594 100.332031 46.757812 100.273438 46.703125 C 100.214844 46.652344 100.164062 46.605469 100.121094 46.566406 L 100.066406 48.664062 C 99.914062 48.671875 99.757812 48.675781 99.601562 48.675781 C 99.445312 48.671875 99.289062 48.671875 99.128906 48.671875 C 99.035156 48.671875 98.941406 48.671875 98.855469 48.675781 C 98.769531 48.675781 98.679688 48.679688 98.585938 48.6875 C 98.609375 48.207031 98.628906 47.730469 98.648438 47.253906 C 98.667969 46.777344 98.675781 46.304688 98.675781 45.832031 L 98.675781 45.730469 C 98.675781 45.203125 98.664062 44.675781 98.636719 44.152344 C 98.609375 43.628906 98.582031 43.101562 98.5625 42.574219 C 98.839844 42.550781 99.113281 42.53125 99.386719 42.515625 C 99.65625 42.496094 99.933594 42.480469 100.210938 42.457031 L 100.269531 42.898438 C 100.652344 42.855469 101.039062 42.816406 101.421875 42.785156 C 101.808594 42.757812 102.195312 42.742188 102.585938 42.742188 C 102.636719 42.742188 102.6875 42.738281 102.746094 42.734375 C 102.804688 42.734375 102.859375 42.738281 102.910156 42.75 C 103.042969 42.777344 103.179688 42.8125 103.320312 42.855469 C 103.457031 42.894531 103.585938 42.949219 103.710938 43.015625 C 103.832031 43.082031 103.941406 43.167969 104.035156 43.269531 C 104.128906 43.375 104.203125 43.496094 104.253906 43.640625 C 104.285156 43.753906 104.316406 43.875 104.34375 44.011719 C 104.371094 44.144531 104.394531 44.28125 104.410156 44.425781 C 104.425781 44.566406 104.4375 44.703125 104.445312 44.839844 C 104.457031 44.976562 104.460938 45.105469 104.460938 45.222656 Z M 102.820312 45.070312 C 102.820312 45.003906 102.8125 44.929688 102.800781 44.855469 C 102.789062 44.777344 102.761719 44.710938 102.71875 44.660156 C 102.609375 44.535156 102.46875 44.433594 102.300781 44.363281 C 102.136719 44.292969 101.972656 44.261719 101.808594 44.261719 C 101.675781 44.261719 101.53125 44.273438 101.378906 44.296875 C 101.222656 44.324219 101.066406 44.355469 100.910156 44.398438 C 100.753906 44.441406 100.601562 44.488281 100.453125 44.539062 C 100.300781 44.59375 100.167969 44.644531 100.042969 44.695312 L 100.121094 45.816406 C 100.324219 45.875 100.542969 45.929688 100.78125 45.980469 C 101.015625 46.03125 101.242188 46.054688 101.453125 46.054688 C 101.507812 46.054688 101.59375 46.058594 101.710938 46.0625 C 101.828125 46.0625 101.949219 46.0625 102.074219 46.054688 C 102.199219 46.042969 102.316406 46.03125 102.421875 46.015625 C 102.53125 46 102.601562 45.96875 102.632812 45.921875 C 102.664062 45.890625 102.6875 45.835938 102.710938 45.761719 C 102.730469 45.683594 102.75 45.605469 102.769531 45.515625 C 102.785156 45.433594 102.796875 45.347656 102.804688 45.269531 C 102.8125 45.1875 102.820312 45.121094 102.820312 45.070312 Z M 105.183594 41.820312 L 107.042969 41.644531 C 106.996094 42.1875 106.953125 42.722656 106.910156 43.257812 C 106.871094 43.792969 106.835938 44.332031 106.808594 44.871094 C 106.78125 45.359375 106.75 45.847656 106.722656 46.328125 C 106.691406 46.808594 106.660156 47.296875 106.632812 47.785156 L 105.359375 47.851562 C 105.359375 47.347656 105.359375 46.84375 105.363281 46.34375 C 105.367188 45.847656 105.363281 45.34375 105.351562 44.835938 C 105.339844 44.332031 105.316406 43.828125 105.285156 43.328125 C 105.25 42.832031 105.21875 42.328125 105.183594 41.820312 Z M 113.675781 44.304688 C 113.675781 44.769531 113.65625 45.234375 113.621094 45.695312 C 113.589844 46.160156 113.558594 46.621094 113.523438 47.085938 C 112.902344 47.140625 112.28125 47.1875 111.664062 47.226562 C 111.050781 47.265625 110.429688 47.285156 109.808594 47.285156 C 109.75 47.285156 109.648438 47.285156 109.5 47.28125 C 109.347656 47.277344 109.191406 47.273438 109.023438 47.265625 C 108.855469 47.253906 108.699219 47.242188 108.550781 47.230469 C 108.398438 47.214844 108.300781 47.195312 108.25 47.167969 C 108.066406 47.066406 107.9375 46.941406 107.867188 46.785156 C 107.792969 46.632812 107.757812 46.460938 107.757812 46.265625 C 107.757812 46.199219 107.761719 46.109375 107.765625 46 C 107.773438 45.886719 107.785156 45.769531 107.800781 45.648438 C 107.816406 45.523438 107.839844 45.410156 107.867188 45.304688 C 107.894531 45.199219 107.929688 45.121094 107.964844 45.070312 C 108.015625 45.003906 108.128906 44.945312 108.308594 44.898438 C 108.484375 44.851562 108.699219 44.8125 108.945312 44.785156 C 109.191406 44.757812 109.457031 44.738281 109.746094 44.71875 C 110.03125 44.703125 110.304688 44.691406 110.566406 44.683594 C 110.828125 44.675781 111.058594 44.671875 111.265625 44.671875 C 111.46875 44.671875 111.617188 44.671875 111.707031 44.671875 C 111.722656 44.546875 111.730469 44.425781 111.730469 44.3125 C 111.730469 44.300781 111.730469 44.269531 111.730469 44.222656 C 111.730469 44.175781 111.730469 44.148438 111.722656 44.136719 C 111.707031 44.101562 111.652344 44.074219 111.566406 44.050781 C 111.476562 44.03125 111.367188 44.011719 111.234375 44 C 111.105469 43.992188 110.964844 43.980469 110.8125 43.972656 C 110.660156 43.964844 110.511719 43.960938 110.367188 43.960938 C 110.222656 43.960938 110.09375 43.960938 109.980469 43.960938 C 109.871094 43.960938 109.792969 43.960938 109.742188 43.960938 C 109.390625 43.960938 109.039062 43.96875 108.691406 43.980469 C 108.339844 43.996094 107.992188 44.007812 107.640625 44.019531 C 107.664062 43.808594 107.679688 43.59375 107.695312 43.375 C 107.707031 43.15625 107.710938 42.941406 107.699219 42.730469 C 108.105469 42.660156 108.511719 42.609375 108.921875 42.578125 C 109.328125 42.546875 109.742188 42.53125 110.15625 42.53125 C 110.308594 42.53125 110.472656 42.535156 110.648438 42.535156 C 110.828125 42.539062 111.003906 42.542969 111.183594 42.550781 C 111.359375 42.5625 111.535156 42.574219 111.710938 42.589844 C 111.886719 42.609375 112.046875 42.628906 112.199219 42.65625 C 112.355469 42.683594 112.507812 42.734375 112.660156 42.808594 C 112.8125 42.878906 112.957031 42.96875 113.089844 43.074219 C 113.222656 43.179688 113.339844 43.300781 113.441406 43.4375 C 113.539062 43.574219 113.613281 43.71875 113.65625 43.875 C 113.664062 43.894531 113.667969 43.921875 113.667969 43.960938 C 113.671875 44 113.675781 44.042969 113.675781 44.089844 C 113.675781 44.136719 113.675781 44.179688 113.675781 44.21875 C 113.675781 44.257812 113.675781 44.285156 113.675781 44.304688 Z M 111.816406 46.265625 L 111.816406 45.195312 C 111.65625 45.191406 111.492188 45.1875 111.332031 45.183594 C 111.171875 45.179688 111.011719 45.179688 110.847656 45.179688 C 110.816406 45.179688 110.722656 45.179688 110.570312 45.183594 C 110.417969 45.1875 110.253906 45.191406 110.078125 45.203125 C 109.902344 45.214844 109.742188 45.230469 109.597656 45.246094 C 109.453125 45.261719 109.371094 45.289062 109.347656 45.324219 C 109.320312 45.367188 109.304688 45.414062 109.296875 45.460938 C 109.285156 45.507812 109.28125 45.554688 109.28125 45.605469 C 109.28125 45.644531 109.285156 45.699219 109.289062 45.765625 C 109.296875 45.832031 109.304688 45.902344 109.320312 45.972656 C 109.335938 46.046875 109.351562 46.113281 109.367188 46.175781 C 109.382812 46.234375 109.40625 46.277344 109.433594 46.308594 C 109.453125 46.335938 109.492188 46.355469 109.542969 46.371094 C 109.597656 46.382812 109.65625 46.394531 109.714844 46.402344 C 109.777344 46.410156 109.839844 46.417969 109.898438 46.421875 C 109.960938 46.421875 110.007812 46.425781 110.042969 46.425781 C 110.175781 46.425781 110.316406 46.417969 110.46875 46.40625 C 110.621094 46.398438 110.777344 46.382812 110.9375 46.371094 C 111.09375 46.355469 111.25 46.339844 111.398438 46.320312 C 111.546875 46.300781 111.6875 46.28125 111.816406 46.265625 Z M 120.273438 46.425781 C 120.273438 46.484375 120.273438 46.574219 120.273438 46.691406 C 120.273438 46.808594 120.269531 46.941406 120.261719 47.085938 C 120.257812 47.234375 120.25 47.390625 120.242188 47.546875 C 120.234375 47.707031 120.222656 47.855469 120.210938 47.996094 C 120.203125 48.140625 120.1875 48.265625 120.167969 48.375 C 120.148438 48.484375 120.125 48.558594 120.105469 48.605469 C 120.011719 48.753906 119.921875 48.871094 119.84375 48.949219 C 119.761719 49.03125 119.671875 49.089844 119.578125 49.121094 C 119.484375 49.15625 119.378906 49.175781 119.257812 49.175781 C 119.140625 49.179688 119 49.179688 118.839844 49.179688 C 118.304688 49.179688 117.773438 49.160156 117.246094 49.117188 C 116.71875 49.078125 116.191406 49.027344 115.664062 48.972656 L 115.664062 47.828125 C 115.714844 47.828125 115.824219 47.824219 115.992188 47.824219 C 116.164062 47.820312 116.359375 47.816406 116.589844 47.8125 C 116.816406 47.804688 117.058594 47.796875 117.3125 47.785156 C 117.570312 47.773438 117.808594 47.761719 118.03125 47.746094 C 118.25 47.726562 118.445312 47.707031 118.605469 47.683594 C 118.765625 47.664062 118.867188 47.636719 118.90625 47.601562 C 118.957031 47.5625 118.996094 47.503906 119.027344 47.421875 C 119.054688 47.34375 119.078125 47.257812 119.09375 47.167969 C 119.105469 47.078125 119.117188 46.988281 119.121094 46.898438 C 119.128906 46.8125 119.128906 46.738281 119.128906 46.683594 C 119.128906 46.628906 119.128906 46.574219 119.128906 46.523438 C 119.128906 46.476562 119.128906 46.417969 119.121094 46.355469 C 119.039062 46.546875 118.925781 46.6875 118.789062 46.785156 C 118.648438 46.878906 118.492188 46.945312 118.320312 46.984375 C 118.148438 47.023438 117.96875 47.042969 117.78125 47.046875 C 117.59375 47.050781 117.410156 47.050781 117.238281 47.050781 C 116.878906 47.050781 116.527344 47.035156 116.191406 47.003906 C 115.855469 46.972656 115.558594 46.894531 115.300781 46.765625 C 115.042969 46.636719 114.835938 46.445312 114.675781 46.1875 C 114.519531 45.925781 114.441406 45.570312 114.441406 45.113281 C 114.441406 44.660156 114.46875 44.210938 114.53125 43.765625 C 114.59375 43.316406 114.667969 42.871094 114.765625 42.429688 L 116.523438 42.449219 C 116.425781 42.796875 116.34375 43.15625 116.273438 43.515625 C 116.199219 43.878906 116.164062 44.242188 116.164062 44.613281 C 116.164062 44.804688 116.175781 44.964844 116.207031 45.089844 C 116.234375 45.210938 116.285156 45.308594 116.355469 45.382812 C 116.429688 45.460938 116.527344 45.511719 116.65625 45.539062 C 116.785156 45.566406 116.945312 45.582031 117.140625 45.582031 C 117.214844 45.582031 117.3125 45.574219 117.425781 45.5625 C 117.539062 45.550781 117.65625 45.535156 117.777344 45.515625 C 117.894531 45.496094 118.007812 45.472656 118.117188 45.4375 C 118.226562 45.40625 118.3125 45.363281 118.371094 45.3125 C 118.394531 45.296875 118.414062 45.242188 118.429688 45.144531 C 118.445312 45.050781 118.460938 44.9375 118.472656 44.808594 C 118.484375 44.675781 118.492188 44.539062 118.496094 44.386719 C 118.5 44.234375 118.507812 44.09375 118.507812 43.960938 C 118.511719 43.824219 118.511719 43.710938 118.511719 43.613281 C 118.511719 43.515625 118.511719 43.453125 118.511719 43.425781 C 118.511719 43.234375 118.511719 43.046875 118.511719 42.863281 C 118.511719 42.675781 118.507812 42.488281 118.496094 42.296875 C 118.769531 42.324219 119.039062 42.347656 119.300781 42.367188 C 119.566406 42.386719 119.832031 42.402344 120.105469 42.414062 C 120.125 42.953125 120.148438 43.488281 120.175781 44.019531 C 120.199219 44.546875 120.226562 45.082031 120.253906 45.621094 C 120.265625 45.757812 120.273438 45.890625 120.273438 46.027344 C 120.273438 46.164062 120.273438 46.296875 120.273438 46.425781 Z M 120.273438 46.425781 "/>
</g>
</g>
</svg>
